<?xml version="1.0" standalone="no"?>
<!DOCTYPE svg PUBLIC "-//W3C//DTD SVG 20010904//EN"
 "http://www.w3.org/TR/2001/REC-SVG-20010904/DTD/svg10.dtd">
<svg version="1.0" xmlns="http://www.w3.org/2000/svg"
 width="700.000000pt" height="700.000000pt" viewBox="0 0 700.000000 700.000000"
 preserveAspectRatio="xMidYMid meet">
<metadata>
Created by potrace 1.11, written by Peter Selinger 2001-2013
</metadata>
<g transform="translate(0.000000,700.000000) scale(0.100000,-0.100000)"
fill="#000000" stroke="none">
<path d="M3487 4704 c-1 -1 -36 -4 -78 -7 -226 -18 -427 -114 -599 -287 -180
-180 -296 -423 -326 -680 -3 -30 -8 -64 -10 -75 -3 -15 -6 -1290 -4 -1871 l0
-81 380 0 380 -1 1 917 c1 504 2 927 4 941 13 125 38 196 90 258 82 98 267
108 377 20 177 -140 153 -426 -45 -530 -32 -17 -59 -23 -117 -23 -66 0 -82 4
-132 32 l-58 32 0 -27 c-4 -222 0 -855 5 -860 4 -4 77 -8 163 -8 156 -2 212 6
338 46 82 26 209 97 293 165 293 235 442 538 444 904 0 118 -10 214 -29 289
-9 31 -17 66 -20 77 -10 53 -77 193 -133 278 -56 87 -183 222 -270 287 -165
124 -365 193 -594 203 -32 1 -59 2 -60 1z"/>
<path d="M300 4652 c-7 -3 -10 -98 -10 -276 1 -286 10 -368 50 -462 39 -89
126 -192 213 -251 20 -14 37 -29 37 -32 0 -4 -13 -15 -29 -24 -99 -58 -206
-193 -242 -305 -20 -63 -22 -91 -26 -431 -3 -241 -1 -366 5 -370 8 -5 730 -7
752 -2 3 1 5 164 4 364 -1 416 2 440 64 482 72 49 155 25 196 -57 l25 -49 1
-367 c0 -201 3 -368 6 -371 3 -3 174 -5 380 -6 l376 0 -5 390 c-4 419 -7 438
-61 549 -25 51 -109 148 -155 179 l-24 16 61 56 c90 83 142 175 168 297 3 18
9 177 11 353 l5 320 -379 0 -378 0 -5 -320 c-6 -352 -7 -361 -71 -399 -79 -47
-165 -14 -204 79 -5 11 -10 151 -11 310 -1 160 -3 299 -3 310 -1 20 -8 20
-371 20 -203 0 -375 -2 -380 -3z"/>
<path d="M4904 4650 c-3 -2 -4 -129 -4 -282 1 -210 5 -293 17 -345 33 -145 85
-226 220 -342 l62 -53 -57 -42 c-78 -58 -146 -136 -182 -209 -53 -108 -59
-165 -60 -541 l0 -341 380 0 c331 0 380 2 381 15 0 8 1 179 3 380 1 312 4 370
18 402 44 100 183 103 239 5 l24 -42 3 -375 c2 -206 7 -377 12 -380 7 -4 714
-5 743 -1 4 0 7 157 7 349 -2 391 -10 472 -59 576 -30 61 -106 151 -159 188
l-22 15 73 75 c79 80 116 143 144 248 15 55 17 113 18 385 l0 319 -368 1
c-203 0 -373 -2 -377 -5 -5 -3 -10 -147 -12 -320 -3 -294 -4 -317 -23 -349
-38 -64 -136 -85 -194 -43 -14 10 -34 36 -45 58 -20 37 -21 55 -21 346 0 170
-2 308 -5 309 -17 4 -752 3 -756 -1z"/>
</g>
</svg>
